<?xml version="1.0" encoding="UTF-8"?>
<svg id="Layer_1" data-name="Layer 1" xmlns="http://www.w3.org/2000/svg" version="1.1" viewBox="0 0 32.67 80.16">
  <defs>
    <style>
      .cls-1 {
        fill: #6b471c;
      }

      .cls-1, .cls-2, .cls-3 {
        stroke-width: 0px;
      }

      .cls-2 {
        fill: #f3e8df;
      }

      .cls-3 {
        fill: #d1a068;
      }
    </style>
  </defs>
  <polygon class="cls-1" points="25.62 59.29 21.43 79.66 2.22 79.66 3.92 71.63 15.03 71.63 17.6 59.29 25.62 59.29"/>
  <polygon class="cls-3" points="23.79 58.29 19.77 77.99 .56 77.99 2.26 69.98 13.36 69.98 15.76 58.29 17.77 58.29 23.79 58.29"/>
  <path class="cls-2" d="M17.26,59.29l-2.64,11.84H3.51l-1.91,9.03h20.24l4.46-20.87h-9.04ZM21.02,79.16H2.84l1.49-7.03h11.1l2.63-11.84h7.02l-4.06,18.87Z"/>
  <polygon class="cls-1" points="23.2 1 19.01 21.37 10.79 21.37 11.45 18.26 12.61 13.34 15.18 1 23.2 1"/>
  <polygon class="cls-3" points="21.37 0 17.35 19.7 9.3 19.7 13.34 0 21.37 0"/>
  <path class="cls-2" d="M14.84,1l-4.43,19.87-.23,1h9.24L23.88,1h-9.04ZM18.6,20.87h-7.15L15.64,2h7.02l-4.06,18.87Z"/>
  <polygon class="cls-1" points="26.81 53.28 18.79 53.28 21.87 38.16 14.39 42.17 9.76 64.93 1.66 64.93 9.3 27.9 17.32 27.9 16.47 32.07 23.96 27.98 32.06 27.98 28.89 43.1 26.81 53.28"/>
  <polygon class="cls-3" points="25.15 51.62 17.13 51.62 20.21 36.5 12.73 40.51 8.1 63.27 0 63.27 7.64 26.24 15.66 26.24 14.81 30.41 22.3 26.32 30.4 26.32 27.23 41.44 25.15 51.62"/>
  <path class="cls-2" d="M23.83,27.48l-6.65,3.63.75-3.71h-9.04L1.05,65.43h9.12l4.66-22.93,6.34-3.39-2.99,14.67h8.76l.22.02,5.51-26.32h-8.84ZM26.37,52.78h-6.97l3.18-15.56-8.63,4.62-4.6,22.59H2.28l7.43-36.03h7l-.94,4.62,8.32-4.54h7.35l-5.07,24.3Z"/>
</svg>