<?xml version="1.0" encoding="UTF-8"?>
<svg xmlns="http://www.w3.org/2000/svg" version="1.1" viewBox="0 0 286.48 183.22">
  <defs>
    <style>
      .cls-1 {
        fill: #6b471c;
      }

      .cls-1, .cls-2, .cls-3 {
        stroke-width: 0px;
      }

      .cls-2 {
        fill: #f3e8df;
      }

      .cls-3 {
        fill: #d1a068;
      }

      .cls-4 {
        display: none;
      }
    </style>
  </defs>
  <g id="Spacing" class="cls-4">
    <path class="cls-2" d="M468.81,162.9l.49-2.23-11.15,5.91,4.93-24.11h-2.51l.24-1.16h-7.95l-8.31,4.33.63-3.17h-2.5l.23-1.16h-7.95l-7.64,36.95h1.49l-.45,2.16h9.04l4.36-21.15,8.21-4.37-4.77,23.36h1.49l-.44,2.16h8.76l14.12-7.49,2.51-11.54-2.86,1.52ZM468.29,172.26l-13.5,7.16h-7.29l.44-2.16h-1.49l4.95-24.24-10.5,5.58-4.29,20.81h-7l.45-2.16h-1.49l7.22-34.95h5.91l-.23,1.16h2.5l-.81,4.02,9.95-5.18h6.48l-.24,1.16h2.51l-5.11,24.99,11.12-5.9-.49,2.23,2.87-1.52-1.96,8.98Z"/>
    <path class="cls-2" d="M283.61,75.21l.49-2.23-11.15,5.91,4.93-24.11h-2.51l.24-1.16h-7.95l-8.31,4.33.63-3.17h-2.5l.23-1.16h-7.95l-7.64,36.95h1.49l-.45,2.16h9.04l4.36-21.15,8.21-4.37-4.77,23.36h1.49l-.44,2.16h8.76l14.12-7.49,2.51-11.54-2.86,1.52ZM283.09,84.57l-13.5,7.16h-7.29l.44-2.16h-1.49l4.95-24.24-10.5,5.58-4.29,20.81h-7l.45-2.16h-1.49l7.22-34.95h5.91l-.23,1.16h2.5l-.81,4.02,9.95-5.18h6.48l-.24,1.16h2.51l-5.11,24.99,11.12-5.9-.49,2.23,2.87-1.52-1.96,8.98Z"/>
    <path class="cls-2" d="M41.48,109.19l.49-2.23-11.15,5.91,4.93-24.11h-2.51l.24-1.16h-7.95l-8.31,4.33.63-3.17h-2.5l.23-1.16h-7.95L0,124.55h1.49l-.45,2.16h9.04l4.36-21.15,8.21-4.37-4.77,23.36h1.49l-.44,2.16h8.76l14.12-7.49,2.51-11.54-2.86,1.52ZM40.95,118.55l-13.5,7.16h-7.29l.44-2.16h-1.49l4.95-24.24-10.5,5.58-4.29,20.81H2.27l.45-2.16h-1.49l7.22-34.95h5.91l-.23,1.16h2.5l-.81,4.02,9.95-5.18h6.48l-.24,1.16h2.51l-5.11,24.99,11.12-5.9-.49,2.23,2.87-1.52-1.96,8.98Z"/>
    <path class="cls-2" d="M117.31,165.7l.49-2.23-11.15,5.91,4.93-24.11h-2.51l.24-1.16h-7.95l-8.31,4.33.63-3.17h-2.5l.23-1.16h-7.95l-7.64,36.95h1.49l-.45,2.16h9.04l4.36-21.15,8.21-4.37-4.77,23.36h1.49l-.44,2.16h8.76l14.12-7.49,2.51-11.54-2.86,1.52ZM116.78,175.06l-13.5,7.16h-7.29l.44-2.16h-1.49l4.95-24.24-10.5,5.58-4.29,20.81h-7l.45-2.16h-1.49l7.22-34.95h5.91l-.23,1.16h2.5l-.81,4.02,9.95-5.18h6.48l-.24,1.16h2.51l-5.11,24.99,11.12-5.9-.49,2.23,2.87-1.52-1.96,8.98Z"/>
    <path class="cls-2" d="M197.97,21.6l.49-2.23-11.15,5.91,4.93-24.11h-2.51l.24-1.16h-7.95l-8.31,4.33.63-3.17h-2.5l.23-1.16h-7.95l-7.64,36.95h1.49l-.45,2.16h9.04l4.36-21.15,8.21-4.37-4.77,23.36h1.49l-.44,2.16h8.76l14.12-7.49,2.51-11.54-2.86,1.52ZM197.44,30.95l-13.5,7.16h-7.29l.44-2.16h-1.49l4.95-24.24-10.5,5.58-4.29,20.81h-7l.45-2.16h-1.49L164.94,1h5.91l-.23,1.16h2.5l-.81,4.02,9.95-5.18h6.48l-.24,1.16h2.51l-5.11,24.99,11.12-5.9-.49,2.23,2.87-1.52-1.96,8.98Z"/>
    <g>
      <polygon class="cls-1" points="432.02 94.18 436.63 71.86 444.58 71.86 443.42 77.65 454.53 71.86 462.48 71.86 457 98.63 470.96 91.22 468.73 101.48 454.92 108.81 446.89 108.81 452.37 81.97 441.34 87.83 437.02 108.81 429 108.81 429.92 104.35 432.02 94.18"/>
      <path class="cls-3" d="M467.06,99.82l-13.81,7.33h-8.02l5.48-26.85-11.03,5.86-4.32,20.98h-8.02l7.64-36.95h7.95l-1.16,5.79,11.11-5.79h7.95l-5.48,26.77,13.96-7.41-2.24,10.26Z"/>
      <path class="cls-2" d="M431.58,93.85l4.65-22.49h8.96l-1.07,5.36,10.29-5.36h8.68l-5.39,26.33,13.98-7.41-2.51,11.54-14.12,7.49h-8.76l5.39-26.41-9.88,5.26-4.36,21.15h-9.04l.83-4.02,2.37-11.44ZM430.62,103.41l-1.01,4.9h7l4.29-20.81,12.17-6.47-5.57,27.29h7.29l13.49-7.16,1.96-8.98-13.95,7.4,5.57-27.21h-7.21l-11.93,6.21,1.24-6.21h-6.93l-4.58,22.15-1.84,8.9Z"/>
    </g>
  </g>
  <g id="Logo">
    <g>
      <polygon class="cls-2" points="227.45 98.63 232.93 71.86 224.98 71.86 213.87 77.65 215.03 71.86 207.09 71.86 202.47 94.18 194.03 98.63 199.51 72.09 179.84 72.09 186.31 40.77 178.22 40.77 167.63 92.69 152.59 100.79 146.26 100.79 150.58 79.73 157.68 79.73 156.37 86.29 164.31 86.29 167.32 71.78 144.18 71.7 139.66 93.87 131.36 98.4 136.76 71.55 128.73 71.55 124.26 93.46 112.69 99.63 118.4 71.55 110.37 71.55 106.05 92.64 90.92 100.79 84.59 100.79 88.91 79.73 96.01 79.73 94.7 86.29 102.64 86.29 105.65 71.78 82.51 71.7 80.15 83.28 73.24 86.98 76.4 71.86 68.3 71.86 60.82 75.95 61.66 71.78 53.64 71.78 46 108.81 54.1 108.81 58.73 86.05 66.21 82.04 63.13 97.16 71.15 97.16 78.09 93.41 74.95 108.81 92.85 108.81 103.94 102.93 102.74 108.81 112.61 108.81 122.18 103.64 115.62 135.58 104.51 135.58 102.81 143.6 122.02 143.6 129.12 108.81 137.55 104.25 136.62 108.81 154.52 108.81 165.54 102.97 164.33 108.89 172.28 108.89 178.29 80.12 189.79 80.12 183.92 108.81 191.95 108.81 200.37 104.35 199.45 108.81 207.47 108.81 211.79 87.83 222.82 81.97 217.34 108.81 225.37 108.81 239.18 101.48 241.42 91.22 227.45 98.63"/>
      <g>
        <path class="cls-3" d="M80.33,89.64l-10.84,5.86h-8.02l3.08-15.12-7.48,4.01-4.63,22.76h-8.1l7.64-37.03h8.02l-.85,4.16,7.48-4.09h8.1l-3.16,15.12,10.95-5.86-2.2,10.18Z"/>
        <path class="cls-3" d="M80.85,70.04l23.14.08-3.01,14.5h-7.95l1.31-6.56h-7.1l-4.32,21.06h6.33l18.05-9.72-2.16,10.34-13.96,7.41h-17.9l7.56-37.11Z"/>
        <path class="cls-3" d="M113.96,133.92l6.56-31.94-9.56,5.17h-9.87l7.64-37.26h8.02l-5.71,28.08,11.57-6.17,4.47-21.91h8.02l-5.4,26.85,13.73-7.48-2.57,10.64-13.4,7.25-7.1,34.79h-19.21l1.7-8.02h11.11Z"/>
        <path class="cls-3" d="M142.52,70.04l23.14.08-3.01,14.5h-7.95l1.31-6.56h-7.1l-4.32,21.06h6.33l18.05-9.72-2.16,10.34-13.96,7.41h-17.9l7.56-37.11Z"/>
        <path class="cls-3" d="M190.29,107.15h-8.02l5.86-28.7h-11.49l-6.02,28.78h-7.95l13.88-68.12h8.1l-6.48,31.32h19.67l-5.47,26.54,13.04-6.87-2.01,10.1-13.12,6.94Z"/>
        <path class="cls-3" d="M237.52,99.82l-13.81,7.33h-8.02l5.48-26.85-11.03,5.86-4.32,20.98h-8.02l7.64-36.95h7.95l-1.16,5.79,11.11-5.79h7.95l-5.48,26.77,13.96-7.41-2.24,10.26Z"/>
      </g>
      <path class="cls-1" d="M122.43,144.1h-20.23l1.91-9.02h11.1l6.26-30.49-8.73,4.72h-10.61l1.12-5.45-10.27,5.45h-18.64l3.05-14.95-6.1,3.3h-8.76l2.99-14.67-6.33,3.4-4.66,22.93h-9.12l7.84-38.03h9.04l-.76,3.71,6.65-3.63h8.84l-3.07,14.67,5.76-3.08,2.39-11.75,24.17.08-3.22,15.5h-8.96l1.31-6.56h-6.08l-4.12,20.06h5.59l14.82-7.98,4.36-21.26h9.04l-5.62,27.64,10.43-5.56,4.51-22.08h9.04l-5.31,26.4,7.16-3.9,4.55-22.34,24.17.08-3.22,15.5h-8.96l1.31-6.56h-6.08l-4.12,20.06h5.59l14.73-7.93,10.62-52.09h9.12l-6.48,31.32h19.67l-5.38,26.1,7.3-3.84,4.65-22.49h8.96l-1.07,5.36,10.29-5.36h8.68l-5.39,26.33,13.98-7.41-2.52,11.54-14.12,7.49h-8.76l5.39-26.41-9.89,5.26-4.36,21.15h-9.04l.83-4.02-7.6,4.02h-8.76l5.86-28.7h-10.48l-6.02,28.78h-8.96l1.12-5.49-10.19,5.41h-18.64l.84-4.11-7.28,3.94-7.13,34.96ZM103.43,143.1h18.18l7.06-34.62,9.58-5.18-1.02,5.01h17.16l11.85-6.28-1.3,6.36h6.93l6.02-28.78h12.51l-5.86,28.7h7.28l9.25-4.9-1.01,4.9h7l4.29-20.81,12.17-6.47-5.57,27.29h7.29l13.5-7.16,1.96-8.98-13.95,7.4,5.57-27.21h-7.21l-11.93,6.21,1.24-6.21h-6.93l-4.58,22.16-9.59,5.05,5.56-26.97h-19.67l6.48-31.32h-7.08l-10.55,51.75-15.36,8.27h-7.06l4.53-22.06h8.12l-1.31,6.56h6.93l2.8-13.51-22.12-.08-4.48,21.99-9.45,5.15,5.49-27.3h-7.01l-4.44,21.74-12.72,6.78,5.8-28.52h-7l-4.29,20.92-15.45,8.32h-7.06l4.53-22.06h8.12l-1.31,6.56h6.93l2.8-13.51-22.12-.08-2.32,11.4-8.06,4.32,3.26-15.57h-7.36l-8.32,4.54.94-4.62h-7l-7.43,36.03h7.08l4.59-22.59,8.63-4.63-3.18,15.56h7.28l7.76-4.2-3.23,15.85h17.16l11.92-6.32-1.3,6.32h9.14l10.4-5.62-6.86,33.39h-11.11l-1.49,7.02Z"/>
    </g>
  </g>
</svg>