<?xml version="1.0" encoding="UTF-8"?>
<svg xmlns="http://www.w3.org/2000/svg" version="1.1" viewBox="0 0 286.48 183.22">
  <defs>
    <style>
      .cls-1 {
        fill: #6b471c;
      }

      .cls-1, .cls-2, .cls-3, .cls-4, .cls-5 {
        stroke-width: 0px;
      }

      .cls-2 {
        fill: #000;
      }

      .cls-3 {
        fill: #f3e8df;
      }

      .cls-4 {
        fill: #d1a068;
      }

      .cls-5 {
        fill: #fff;
      }

      .cls-6 {
        display: none;
      }
    </style>
  </defs>
  <g id="Spacing" class="cls-6">
    <path class="cls-3" d="M468.81,162.9l.49-2.23-11.15,5.91,4.93-24.11h-2.51l.24-1.16h-7.95l-8.31,4.33.63-3.17h-2.5l.23-1.16h-7.95l-7.64,36.95h1.49l-.45,2.16h9.04l4.36-21.15,8.21-4.37-4.77,23.36h1.49l-.44,2.16h8.76l14.12-7.49,2.51-11.54-2.86,1.52ZM468.29,172.26l-13.5,7.16h-7.29l.44-2.16h-1.49l4.95-24.24-10.5,5.58-4.29,20.81h-7l.45-2.16h-1.49l7.22-34.95h5.91l-.23,1.16h2.5l-.81,4.02,9.95-5.18h6.48l-.24,1.16h2.51l-5.11,24.99,11.12-5.9-.49,2.23,2.87-1.52-1.96,8.98Z"/>
    <path class="cls-3" d="M283.61,75.21l.49-2.23-11.15,5.91,4.93-24.11h-2.51l.24-1.16h-7.95l-8.31,4.33.63-3.17h-2.5l.23-1.16h-7.95l-7.64,36.95h1.49l-.45,2.16h9.04l4.36-21.15,8.21-4.37-4.77,23.36h1.49l-.44,2.16h8.76l14.12-7.49,2.51-11.54-2.86,1.52ZM283.09,84.57l-13.5,7.16h-7.29l.44-2.16h-1.49l4.95-24.24-10.5,5.58-4.29,20.81h-7l.45-2.16h-1.49l7.22-34.95h5.91l-.23,1.16h2.5l-.81,4.02,9.95-5.18h6.48l-.24,1.16h2.51l-5.11,24.99,11.12-5.9-.49,2.23,2.87-1.52-1.96,8.98Z"/>
    <path class="cls-3" d="M41.48,109.19l.49-2.23-11.15,5.91,4.93-24.11h-2.51l.24-1.16h-7.95l-8.31,4.33.63-3.17h-2.5l.23-1.16h-7.95L0,124.55h1.49l-.45,2.16h9.04l4.36-21.15,8.21-4.37-4.77,23.36h1.49l-.44,2.16h8.76l14.12-7.49,2.51-11.54-2.86,1.52ZM40.95,118.55l-13.5,7.16h-7.29l.44-2.16h-1.49l4.95-24.24-10.5,5.58-4.29,20.81H2.27l.45-2.16h-1.49l7.22-34.95h5.91l-.23,1.16h2.5l-.81,4.02,9.95-5.18h6.48l-.24,1.16h2.51l-5.11,24.99,11.12-5.9-.49,2.23,2.87-1.52-1.96,8.98Z"/>
    <path class="cls-3" d="M117.31,165.7l.49-2.23-11.15,5.91,4.93-24.11h-2.51l.24-1.16h-7.95l-8.31,4.33.63-3.17h-2.5l.23-1.16h-7.95l-7.64,36.95h1.49l-.45,2.16h9.04l4.36-21.15,8.21-4.37-4.77,23.36h1.49l-.44,2.16h8.76l14.12-7.49,2.51-11.54-2.86,1.52ZM116.78,175.06l-13.5,7.16h-7.29l.44-2.16h-1.49l4.95-24.24-10.5,5.58-4.29,20.81h-7l.45-2.16h-1.49l7.22-34.95h5.91l-.23,1.16h2.5l-.81,4.02,9.95-5.18h6.48l-.24,1.16h2.51l-5.11,24.99,11.12-5.9-.49,2.23,2.87-1.52-1.96,8.98Z"/>
    <path class="cls-3" d="M197.97,21.6l.49-2.23-11.15,5.91,4.93-24.11h-2.51l.24-1.16h-7.95l-8.31,4.33.63-3.17h-2.5l.23-1.16h-7.95l-7.64,36.95h1.49l-.45,2.16h9.04l4.36-21.15,8.21-4.37-4.77,23.36h1.49l-.44,2.16h8.76l14.12-7.49,2.51-11.54-2.86,1.52ZM197.44,30.95l-13.5,7.16h-7.29l.44-2.16h-1.49l4.95-24.24-10.5,5.58-4.29,20.81h-7l.45-2.16h-1.49L164.94,1h5.91l-.23,1.16h2.5l-.81,4.02,9.95-5.18h6.48l-.24,1.16h2.51l-5.11,24.99,11.12-5.9-.49,2.23,2.87-1.52-1.96,8.98Z"/>
    <g>
      <polygon class="cls-1" points="432.02 94.18 436.63 71.86 444.58 71.86 443.42 77.65 454.53 71.86 462.48 71.86 457 98.63 470.96 91.22 468.73 101.48 454.92 108.81 446.89 108.81 452.37 81.97 441.34 87.83 437.02 108.81 429 108.81 429.92 104.35 432.02 94.18"/>
      <path class="cls-4" d="M467.06,99.82l-13.81,7.33h-8.02l5.48-26.85-11.03,5.86-4.32,20.98h-8.02l7.64-36.95h7.95l-1.16,5.79,11.11-5.79h7.95l-5.48,26.77,13.96-7.41-2.24,10.26Z"/>
      <path class="cls-3" d="M431.58,93.85l4.65-22.49h8.96l-1.07,5.36,10.29-5.36h8.68l-5.39,26.33,13.98-7.41-2.51,11.54-14.12,7.49h-8.76l5.39-26.41-9.88,5.26-4.36,21.15h-9.04l.83-4.02,2.37-11.44ZM430.62,103.41l-1.01,4.9h7l4.29-20.81,12.17-6.47-5.57,27.29h7.29l13.49-7.16,1.96-8.98-13.95,7.4,5.57-27.21h-7.21l-11.93,6.21,1.24-6.21h-6.93l-4.58,22.15-1.84,8.9Z"/>
    </g>
  </g>
  <g id="Logo">
    <g id="White">
      <polygon class="cls-2" points="102.81 143.61 103.27 141.45 101.76 141.45 103.26 134.42 114.36 134.42 120.5 104.55 112.62 108.81 102.74 108.81 103.18 106.65 101.69 106.65 102.27 103.82 92.85 108.81 74.95 108.81 75.39 106.65 73.9 106.65 76.41 94.32 71.16 97.17 63.14 97.17 63.58 95 62.09 95 64.55 82.94 58.73 86.06 54.11 108.81 46.01 108.81 46.46 106.65 44.96 106.65 52.39 70.62 59.39 70.62 59.15 71.79 61.66 71.79 61.28 73.69 66.77 70.7 74.13 70.7 73.89 71.86 76.4 71.86 73.7 84.75 78.29 82.29 78.94 81.95 81.26 70.54 103.38 70.62 103.14 71.78 105.65 71.79 102.65 86.29 94.7 86.29 95.13 84.13 93.65 84.13 94.53 79.73 88.92 79.73 84.83 99.63 89.38 99.63 104.84 91.31 109.12 70.39 116.12 70.39 115.89 71.55 118.4 71.55 113.14 97.41 123.05 92.13 127.48 70.39 134.48 70.39 134.25 71.55 136.76 71.55 131.81 96.15 138.45 92.54 142.93 70.54 165.05 70.62 164.81 71.78 167.32 71.79 164.32 86.29 156.37 86.29 156.8 84.13 155.32 84.13 156.2 79.73 150.59 79.73 146.5 99.63 151.05 99.63 166.42 91.36 176.96 39.61 184.04 39.61 183.8 40.77 186.32 40.77 180.08 70.93 197.23 70.93 196.99 72.09 199.51 72.09 194.49 96.41 201.26 92.85 205.83 70.7 212.77 70.7 212.53 71.86 215.03 71.86 214.32 75.45 223.45 70.7 230.66 70.7 230.42 71.86 232.93 71.86 227.88 96.5 228.86 95.91 239.04 90.5 238.56 92.74 241.42 91.23 239.18 101.48 225.37 108.81 217.35 108.81 217.79 106.65 216.3 106.65 218.04 98.07 221.16 82.86 211.79 87.83 207.48 108.81 199.45 108.81 199.9 106.65 198.41 106.65 198.7 105.23 191.95 108.81 183.93 108.81 184.37 106.65 182.88 106.65 184.12 100.57 188.3 80.12 178.3 80.12 172.28 108.89 164.34 108.89 164.78 106.73 163.29 106.73 163.86 103.85 154.52 108.81 136.63 108.81 137.07 106.65 135.57 106.65 135.88 105.15 129.12 108.81 122.03 143.61 102.81 143.61"/>
      <g>
        <g>
          <polygon class="cls-5" points="225.79 96.97 231.27 70.2 223.32 70.2 212.21 75.99 213.37 70.2 205.43 70.2 200.81 92.52 192.37 96.97 197.85 70.43 178.18 70.43 184.66 39.11 176.56 39.11 165.97 91.03 150.93 99.13 144.6 99.13 148.92 78.07 156.02 78.07 154.71 84.63 162.65 84.63 165.66 70.12 142.52 70.04 138 92.21 129.7 96.74 135.1 69.89 127.07 69.89 122.6 91.8 111.03 97.97 116.74 69.89 108.71 69.89 104.39 90.98 89.26 99.13 82.93 99.13 87.25 78.07 94.35 78.07 93.04 84.63 100.98 84.63 103.99 70.12 80.85 70.04 78.49 81.62 71.58 85.32 74.74 70.2 66.64 70.2 59.16 74.29 60 70.12 51.98 70.12 44.34 107.15 52.44 107.15 57.07 84.39 64.56 80.38 61.47 95.5 69.49 95.5 76.43 91.75 73.29 107.15 91.19 107.15 102.28 101.26 101.08 107.15 110.95 107.15 120.52 101.98 113.96 133.92 102.85 133.92 101.15 141.94 120.36 141.94 127.46 107.15 135.89 102.59 134.96 107.15 152.86 107.15 163.88 101.31 162.67 107.23 170.62 107.23 176.63 78.45 188.13 78.45 182.27 107.15 190.29 107.15 198.71 102.69 197.79 107.15 205.81 107.15 210.13 86.17 221.16 80.3 215.69 107.15 223.71 107.15 237.52 99.82 239.76 89.56 225.79 96.97"/>
          <polygon class="cls-5" points="225.79 96.97 231.27 70.2 223.32 70.2 212.21 75.99 213.37 70.2 205.43 70.2 200.81 92.52 192.37 96.97 197.85 70.43 178.18 70.43 184.66 39.11 176.56 39.11 165.97 91.03 150.93 99.13 144.6 99.13 148.92 78.07 156.02 78.07 154.71 84.63 162.65 84.63 165.66 70.12 142.52 70.04 138 92.21 129.7 96.74 135.1 69.89 127.07 69.89 122.6 91.8 111.03 97.97 116.74 69.89 108.71 69.89 104.39 90.98 89.26 99.13 82.93 99.13 87.25 78.07 94.35 78.07 93.04 84.63 100.98 84.63 103.99 70.12 80.85 70.04 78.49 81.62 71.58 85.32 74.74 70.2 66.64 70.2 59.16 74.29 60 70.12 51.98 70.12 44.34 107.15 52.44 107.15 57.07 84.39 64.56 80.38 61.47 95.5 69.49 95.5 76.43 91.75 73.29 107.15 91.19 107.15 102.28 101.26 101.08 107.15 110.95 107.15 120.52 101.98 113.96 133.92 102.85 133.92 101.15 141.94 120.36 141.94 127.46 107.15 135.89 102.59 134.96 107.15 152.86 107.15 163.88 101.31 162.67 107.23 170.62 107.23 176.63 78.45 188.13 78.45 182.27 107.15 190.29 107.15 198.71 102.69 197.79 107.15 205.81 107.15 210.13 86.17 221.16 80.3 215.69 107.15 223.71 107.15 237.52 99.82 239.76 89.56 225.79 96.97"/>
          <polygon class="cls-5" points="150.92 99.13 165.97 91.03 176.55 39.11 184.65 39.11 184.41 40.27 177.8 40.27 167.19 92.36 152.46 100.29 146.87 100.29 147.11 99.13 150.92 99.13"/>
          <polygon class="cls-5" points="132.51 95.2 138 92.21 142.52 70.05 165.66 70.12 165.42 71.28 143.77 71.21 139.22 93.55 132.06 97.45 132.51 95.2"/>
          <polygon class="cls-5" points="113.84 96.47 122.6 91.8 127.07 69.89 135.09 69.89 134.86 71.05 128.32 71.05 123.82 93.13 113.39 98.69 113.84 96.47"/>
          <polygon class="cls-5" points="89.25 99.13 104.39 90.98 108.71 69.89 116.73 69.89 116.49 71.05 109.96 71.05 105.61 92.31 90.79 100.29 85.2 100.29 85.44 99.13 89.25 99.13"/>
          <polygon class="cls-5" points="74.41 83.8 78.49 81.62 80.85 70.05 103.99 70.12 103.75 71.28 82.1 71.21 79.71 82.95 73.94 86.04 74.41 83.8"/>
          <polygon class="cls-5" points="68.17 71.36 61.52 75 61.98 72.75 66.64 70.2 74.74 70.2 74.5 71.36 68.17 71.36"/>
          <polygon class="cls-5" points="53.23 71.29 45.84 107.15 44.34 107.15 51.98 70.12 60 70.12 59.76 71.29 53.23 71.29"/>
          <polygon class="cls-5" points="65.51 82.99 62.96 95.5 61.47 95.5 63.84 83.89 65.51 82.99"/>
          <polygon class="cls-5" points="77.38 94.36 74.77 107.15 73.29 107.15 75.7 95.27 77.38 94.36"/>
          <polygon class="cls-5" points="102.56 107.15 101.07 107.15 101.56 104.76 103.24 103.87 102.56 107.15"/>
          <polygon class="cls-5" points="104.1 135.08 102.65 141.95 101.15 141.95 102.85 133.92 113.95 133.92 119.79 105.5 121.47 104.59 115.21 135.08 104.1 135.08"/>
          <polygon class="cls-5" points="135.17 106.1 136.84 105.2 136.45 107.15 134.96 107.15 135.17 106.1"/>
          <polygon class="cls-5" points="163.16 104.79 164.83 103.91 164.16 107.23 162.67 107.23 163.16 104.79"/>
          <polygon class="cls-5" points="180.69 70.43 197.84 70.43 197.6 71.59 180.45 71.59 180.69 70.43"/>
          <polygon class="cls-5" points="189.17 80.62 183.75 107.15 182.26 107.15 187.69 80.62 189.17 80.62"/>
          <polygon class="cls-5" points="197.99 106.17 199.66 105.29 199.28 107.15 197.79 107.15 197.99 106.17"/>
          <polygon class="cls-5" points="195.19 95.49 200.81 92.53 205.42 70.2 213.37 70.2 213.14 71.36 206.68 71.36 202.03 93.85 194.73 97.7 195.19 95.49"/>
          <polygon class="cls-5" points="224.86 71.36 214.57 76.72 215.01 74.53 223.32 70.2 231.27 70.2 231.03 71.36 224.86 71.36"/>
          <polygon class="cls-5" points="222.12 82.91 217.17 107.15 215.68 107.15 220.45 83.8 222.12 82.91"/>
          <polygon class="cls-5" points="238.99 93.07 237.52 99.83 223.71 107.15 218.19 107.15 223.52 81.03 220.71 82.53 221.16 80.31 210.13 86.17 205.81 107.15 200.3 107.15 201.07 103.42 198.25 104.91 198.71 102.69 190.28 107.15 184.77 107.15 190.4 79.62 187.89 79.62 188.13 78.46 176.63 78.46 170.61 107.23 165.18 107.23 166.24 102.03 163.42 103.52 163.87 101.31 152.86 107.15 137.47 107.15 138.25 103.3 135.43 104.82 135.89 102.59 127.46 107.15 120.36 141.95 103.68 141.95 104.92 136.08 116.02 136.08 122.88 102.7 120.05 104.23 120.51 101.98 110.95 107.15 103.59 107.15 104.64 101.99 101.82 103.48 102.28 101.27 91.18 107.15 75.8 107.15 78.79 92.46 75.96 93.99 76.42 91.75 69.49 95.5 63.98 95.5 66.92 81.1 64.1 82.61 64.55 80.39 57.07 84.4 52.44 107.15 46.86 107.15 54.05 72.29 59.56 72.29 59.15 74.29 60.83 73.37 60.11 76.9 68.43 72.36 74.29 72.36 71.57 85.32 73.26 84.41 72.53 87.93 80.59 83.61 82.91 72.21 103.54 72.28 100.98 84.63 93.03 84.63 93.92 80.23 94.12 79.23 94.35 78.07 87.25 78.07 82.93 99.13 84.42 99.13 83.98 101.29 91.04 101.29 106.49 92.97 110.78 72.05 116.29 72.05 111.02 97.97 112.69 97.08 111.98 100.57 124.7 93.79 129.14 72.05 134.66 72.05 129.69 96.74 131.36 95.83 130.65 99.35 140.1 94.2 144.59 72.21 165.21 72.28 162.65 84.63 154.71 84.63 155.59 80.23 155.79 79.23 156.02 78.07 148.92 78.07 144.6 99.13 146.09 99.13 145.65 101.29 152.71 101.29 168.07 93.02 178.62 41.27 184.2 41.27 178.17 70.43 179.67 70.43 179.22 72.59 197.39 72.59 192.37 96.97 194.05 96.09 193.33 99.57 202.91 94.52 207.49 72.36 212.94 72.36 212.21 75.99 213.87 75.13 213.18 78.57 225.1 72.36 230.83 72.36 225.79 96.97 227.46 96.08 226.75 99.57 238.99 93.07"/>
          <polygon class="cls-5" points="239.75 89.57 239.27 91.8 228.15 97.69 228.6 95.48 239.75 89.57"/>
        </g>
        <g>
          <polygon class="cls-5" points="242.13 90.28 239.62 101.82 225.49 109.31 216.73 109.31 217.17 107.15 218.19 107.15 217.95 108.31 225.24 108.31 238.74 101.15 240.69 92.17 238.99 93.07 239.27 91.8 242.13 90.28"/>
          <polygon class="cls-5" points="233.54 71.36 228.6 95.48 227.46 96.08 232.31 72.36 230.83 72.36 231.03 71.36 233.54 71.36"/>
          <polygon class="cls-5" points="215.64 71.36 215.01 74.53 213.87 75.13 214.42 72.36 212.94 72.36 213.14 71.36 215.64 71.36"/>
          <polygon class="cls-5" points="220.71 82.53 220.45 83.8 212.23 88.16 207.88 109.31 198.83 109.31 199.28 107.15 200.3 107.15 200.06 108.31 207.06 108.31 211.35 87.5 220.71 82.53"/>
          <polygon class="cls-5" points="198.25 104.91 197.99 106.17 192.07 109.31 183.31 109.31 183.75 107.15 184.77 107.15 184.53 108.31 191.82 108.31 198.25 104.91"/>
          <polygon class="cls-5" points="200.12 71.59 195.19 95.49 194.05 96.09 198.89 72.59 197.39 72.59 197.6 71.59 200.12 71.59"/>
          <polygon class="cls-5" points="186.93 40.27 180.69 70.43 179.67 70.43 185.7 41.27 184.2 41.27 184.41 40.27 186.93 40.27"/>
          <polygon class="cls-5" points="187.89 79.62 187.69 80.62 178.7 80.62 172.68 109.39 163.72 109.39 164.16 107.23 165.18 107.23 164.94 108.39 171.87 108.39 177.89 79.62 187.89 79.62"/>
          <polygon class="cls-5" points="167.93 71.29 164.72 86.79 155.76 86.79 156.19 84.63 157.21 84.63 156.98 85.79 163.91 85.79 166.71 72.28 165.21 72.28 165.42 71.28 167.93 71.29"/>
          <polygon class="cls-5" points="155.79 79.23 155.59 80.23 150.99 80.23 147.11 99.13 146.09 99.13 150.17 79.23 155.79 79.23"/>
          <polygon class="cls-5" points="163.42 103.52 163.16 104.79 154.64 109.31 136.01 109.31 136.45 107.15 137.47 107.15 137.23 108.31 154.39 108.31 163.42 103.52"/>
          <polygon class="cls-5" points="135.43 104.82 135.17 106.1 129.56 109.14 122.43 144.11 102.19 144.11 102.65 141.95 103.68 141.95 103.43 143.11 121.61 143.11 128.67 108.48 135.43 104.82"/>
          <polygon class="cls-5" points="137.37 71.05 132.51 95.2 131.36 95.83 136.14 72.05 134.66 72.05 134.86 71.05 137.37 71.05"/>
          <polygon class="cls-5" points="119.01 71.05 113.84 96.47 112.69 97.08 117.78 72.05 116.29 72.05 116.49 71.05 119.01 71.05"/>
          <polygon class="cls-5" points="120.05 104.23 119.79 105.5 112.74 109.31 102.12 109.31 102.56 107.15 103.59 107.15 103.35 108.31 112.48 108.31 120.05 104.23"/>
          <polygon class="cls-5" points="106.26 71.29 103.05 86.79 94.09 86.79 94.52 84.63 95.54 84.63 95.31 85.79 102.23 85.79 105.04 72.28 103.54 72.28 103.75 71.28 106.26 71.29"/>
          <polygon class="cls-5" points="94.12 79.23 93.92 80.23 89.32 80.23 85.44 99.13 84.42 99.13 88.5 79.23 94.12 79.23"/>
          <polygon class="cls-5" points="101.82 103.48 101.56 104.76 92.97 109.31 74.33 109.31 74.77 107.15 75.8 107.15 75.56 108.31 92.72 108.31 101.82 103.48"/>
          <polygon class="cls-5" points="77.01 71.36 74.41 83.8 73.26 84.41 75.78 72.36 74.29 72.36 74.5 71.36 77.01 71.36"/>
          <polygon class="cls-5" points="75.96 93.99 75.7 95.27 71.28 97.67 62.52 97.67 62.96 95.5 63.98 95.5 63.74 96.67 71.02 96.67 75.96 93.99"/>
          <polygon class="cls-5" points="64.1 82.61 63.84 83.89 59.17 86.39 54.51 109.31 45.39 109.31 45.84 107.15 46.86 107.15 46.62 108.31 53.69 108.31 58.29 85.73 64.1 82.61"/>
          <polygon class="cls-5" points="62.27 71.29 61.98 72.75 60.83 73.37 61.05 72.29 59.56 72.29 59.76 71.29 62.27 71.29"/>
        </g>
        <g>
          <path class="cls-2" d="M94.12,79.23l-.2,1h1.48l-.88,4.4h1.02l1.08-5.4h-2.5ZM155.79,79.23l-.2,1h1.48l-.88,4.4h1.02l1.08-5.4h-2.5Z"/>
          <g>
            <polygon class="cls-2" points="239.27 91.8 238.99 93.07 226.75 99.57 227.46 96.08 228.6 95.48 228.15 97.69 239.27 91.8"/>
            <polygon class="cls-2" points="223.52 81.03 218.19 107.15 217.17 107.15 222.12 82.91 220.45 83.8 220.71 82.53 223.52 81.03"/>
            <polygon class="cls-2" points="231.03 71.36 230.83 72.36 225.1 72.36 213.18 78.57 213.87 75.13 215.01 74.53 214.57 76.72 224.86 71.36 231.03 71.36"/>
            <polygon class="cls-2" points="213.14 71.36 212.94 72.36 207.49 72.36 202.91 94.52 193.33 99.57 194.05 96.09 195.19 95.49 194.73 97.7 202.03 93.85 206.68 71.36 213.14 71.36"/>
            <polygon class="cls-2" points="201.07 103.42 200.3 107.15 199.28 107.15 199.66 105.29 197.99 106.17 198.25 104.91 201.07 103.42"/>
            <polygon class="cls-2" points="190.4 79.62 184.77 107.15 183.75 107.15 189.17 80.62 187.69 80.62 187.89 79.62 190.4 79.62"/>
            <polygon class="cls-2" points="197.6 71.59 197.39 72.59 179.22 72.59 179.67 70.43 180.69 70.43 180.45 71.59 197.6 71.59"/>
            <polygon class="cls-2" points="166.24 102.03 165.18 107.23 164.16 107.23 164.83 103.91 163.16 104.79 163.42 103.52 166.24 102.03"/>
            <polygon class="cls-2" points="138.25 103.3 137.47 107.15 136.45 107.15 136.84 105.2 135.17 106.1 135.43 104.82 138.25 103.3"/>
            <polygon class="cls-2" points="122.88 102.7 116.02 136.08 104.92 136.08 103.68 141.95 102.65 141.95 104.1 135.08 115.21 135.08 121.47 104.59 119.79 105.5 120.05 104.23 122.88 102.7"/>
            <polygon class="cls-2" points="104.64 101.99 103.59 107.15 102.56 107.15 103.24 103.87 101.56 104.76 101.82 103.48 104.64 101.99"/>
            <polygon class="cls-2" points="78.79 92.46 75.8 107.15 74.77 107.15 77.38 94.36 75.7 95.27 75.96 93.99 78.79 92.46"/>
            <polygon class="cls-2" points="66.92 81.1 63.98 95.5 62.96 95.5 65.51 82.99 63.84 83.89 64.1 82.61 66.92 81.1"/>
            <polygon class="cls-2" points="59.76 71.29 59.56 72.29 54.05 72.29 46.86 107.15 45.84 107.15 53.23 71.29 59.76 71.29"/>
            <polygon class="cls-2" points="74.5 71.36 74.29 72.36 68.43 72.36 60.11 76.9 60.83 73.37 61.98 72.75 61.52 75 68.17 71.36 74.5 71.36"/>
            <polygon class="cls-2" points="103.75 71.28 103.54 72.28 82.91 72.21 80.59 83.61 72.53 87.93 73.26 84.41 74.41 83.8 73.94 86.04 79.71 82.95 82.1 71.21 103.75 71.28"/>
            <polygon class="cls-2" points="116.49 71.05 116.29 72.05 110.78 72.05 106.49 92.97 91.04 101.29 83.98 101.29 84.42 99.13 85.44 99.13 85.2 100.29 90.79 100.29 105.61 92.31 109.96 71.05 116.49 71.05"/>
            <polygon class="cls-2" points="134.86 71.05 134.66 72.05 129.14 72.05 124.7 93.79 111.98 100.57 112.69 97.08 113.84 96.47 113.39 98.69 123.82 93.13 128.32 71.05 134.86 71.05"/>
            <polygon class="cls-2" points="165.42 71.28 165.21 72.28 144.59 72.21 140.1 94.2 130.65 99.35 131.36 95.83 132.51 95.2 132.06 97.45 139.22 93.55 143.77 71.21 165.42 71.28"/>
            <polygon class="cls-2" points="184.41 40.27 184.2 41.27 178.62 41.27 168.07 93.02 152.71 101.29 145.65 101.29 146.09 99.13 147.11 99.13 146.87 100.29 152.46 100.29 167.19 92.36 177.8 40.27 184.41 40.27"/>
          </g>
        </g>
      </g>
    </g>
  </g>
</svg>