<?xml version="1.0" encoding="UTF-8"?>
<svg id="Layer_1" data-name="Layer 1" xmlns="http://www.w3.org/2000/svg" version="1.1" viewBox="0 0 197.8 105">
  <defs>
    <style>
      .cls-1 {
        fill: #d1a068;
      }

      .cls-1, .cls-2, .cls-3 {
        stroke-width: 0px;
      }

      .cls-2 {
        fill: #6b471c;
      }

      .cls-4 {
        display: none;
      }

      .cls-3 {
        fill: #f3e8df;
      }
    </style>
  </defs>
  <g id="Spacing" class="cls-4">
    <path class="cls-3" d="M424.5,123.8l.5-2.2-11.1,5.9,4.9-24.1h-2.5l.2-1.2h-8l-8.3,4.3.6-3.2h-2.5l.2-1.2h-8l-7.6,36.9h1.5l-.5,2.2h9l4.4-21.1,8.2-4.4-4.8,23.4h1.5l-.4,2.2h8.8l14.1-7.5,2.5-11.5-2.9,1.5h0ZM424,133.2l-13.5,7.2h-7.3l.4-2.2h-1.5l5-24.2-10.5,5.6-4.3,20.8h-7l.5-2.2h-1.5l7.2-34.9h5.9l-.2,1.2h2.5l-.8,4,10-5.2h6.5l-.2,1.2h2.5l-5.1,25,11.1-5.9-.5,2.2,2.9-1.5-2,9h0Z"/>
    <path class="cls-3" d="M239.3,36.1l.5-2.2-11.1,5.9,4.9-24.1h-2.5l.2-1.2h-8l-8.3,4.3.6-3.2h-2.5l.2-1.2h-7.9l-7.6,37h1.5l-.4,2.2h9l4.4-21.2,8.2-4.4-4.8,23.4h1.5l-.4,2.2h8.8l14.1-7.5,2.5-11.5-2.9,1.5h0ZM238.7,45.5l-13.5,7.2h-7.3l.4-2.2h-1.5l5-24.2-10.5,5.6-4.3,20.8h-7l.4-2.2h-1.5l7.2-35h5.9l-.2,1.2h2.5l-.8,4,10-5.2h6.5l-.2,1.2h2.5l-5.1,25,11.1-5.9-.5,2.2,2.9-1.5-2,9h0Z"/>
    <path class="cls-3" d="M-2.9,70.1l.5-2.2-11.1,5.9,4.9-24.1h-2.5l.2-1.2h-8l-8.3,4.3.6-3.2h-2.5l.2-1.2h-7.9l-7.6,37h1.5l-.5,2.2h9l4.4-21.2,8.2-4.4-4.8,23.4h1.5l-.4,2.2h8.8l14.1-7.5L0,68.6l-2.9,1.5h0ZM-3.4,79.4l-13.5,7.2h-7.3l.4-2.2h-1.5l5-24.2-10.5,5.6-4.3,20.8h-7l.5-2.2h-1.5l7.2-35h5.9l-.2,1.2h2.5l-.8,4,9.9-5.2h6.5l-.2,1.2h2.5l-5.1,25,11.1-5.9-.5,2.2,2.9-1.5-2,9h0Z"/>
    <path class="cls-3" d="M73,126.6l.5-2.2-11.2,5.9,4.9-24.1h-2.5l.2-1.2h-7.9l-8.3,4.3.6-3.2h-2.5l.2-1.2h-7.9l-7.6,36.9h1.5l-.4,2.2h9l4.4-21.1,8.2-4.4-4.8,23.4h1.5l-.4,2.2h8.8l14.1-7.5,2.5-11.5-2.9,1.5h0ZM72.4,136l-13.5,7.2h-7.3l.4-2.2h-1.5l4.9-24.2-10.5,5.6-4.3,20.8h-7l.4-2.2h-1.5l7.2-34.9h5.9l-.2,1.2h2.5l-.8,4,9.9-5.2h6.5l-.2,1.2h2.5l-5.1,25,11.1-5.9-.5,2.2,2.9-1.5-2,9h0Z"/>
    <path class="cls-3" d="M153.6-17.5l.5-2.2-11.1,5.9,4.9-24.1h-2.5l.2-1.2h-7.9l-8.3,4.3.6-3.2h-2.5l.2-1.2h-7.9l-7.6,36.9h1.5l-.4,2.2h9l4.4-21.1,8.2-4.4-4.8,23.4h1.5l-.4,2.2h8.8l14.1-7.5,2.5-11.5-2.9,1.5h0ZM153.1-8.2l-13.5,7.2h-7.3l.4-2.2h-1.5l4.9-24.2-10.5,5.6-4.3,20.8h-7l.4-2.2h-1.5l7.2-34.9h5.9l-.2,1.2h2.5l-.8,4,9.9-5.2h6.5l-.2,1.2h2.5l-5.1,25,11.1-5.9-.5,2.2,2.9-1.5-2,9h0Z"/>
    <g>
      <polygon class="cls-2" points="387.7 55.1 392.3 32.8 400.2 32.8 399.1 38.5 410.2 32.8 418.1 32.8 412.7 59.5 426.6 52.1 424.4 62.4 410.6 69.7 402.6 69.7 408 42.9 397 48.7 392.7 69.7 384.7 69.7 385.6 65.2 387.7 55.1"/>
      <path class="cls-1" d="M422.7,60.7l-13.8,7.3h-8l5.5-26.8-11,5.9-4.3,21h-8l7.6-36.9h8l-1.2,5.8,11.1-5.8h8l-5.5,26.8,14-7.4-2.2,10.3h0Z"/>
      <path class="cls-3" d="M387.2,54.7l4.6-22.5h9l-1.1,5.4,10.3-5.4h8.7l-5.4,26.3,14-7.4-2.5,11.5-14.1,7.5h-8.8l5.4-26.4-9.9,5.3-4.4,21.2h-9l.8-4,2.4-11.4h0ZM386.3,64.3l-1,4.9h7l4.3-20.8,12.2-6.5-5.6,27.3h7.3l13.5-7.2,2-9-14,7.4,5.6-27.2h-7.2l-11.9,6.2,1.2-6.2h-6.9l-4.6,22.2-1.8,8.9h0Z"/>
    </g>
  </g>
  <g id="Logo">
    <g>
      <polygon class="cls-2" points="183.1 59.5 188.6 32.8 180.6 32.8 169.5 38.5 170.7 32.8 162.7 32.8 158.1 55.1 149.7 59.5 155.2 33 135.5 33 142 1.7 133.9 1.7 123.3 53.6 108.2 61.7 101.9 61.7 106.2 40.6 113.3 40.6 112 47.2 120 47.2 123 32.7 99.8 32.6 95.3 54.8 87 59.3 92.4 32.4 84.4 32.4 79.9 54.4 68.3 60.5 74.1 32.4 66 32.4 61.7 53.5 46.6 61.7 40.2 61.7 44.6 40.6 51.7 40.6 50.4 47.2 58.3 47.2 61.3 32.7 38.2 32.6 35.8 44.2 28.9 47.9 32.1 32.8 24 32.8 16.5 36.8 17.3 32.7 9.3 32.7 1.7 69.7 9.8 69.7 14.4 46.9 21.9 42.9 18.8 58.1 26.8 58.1 33.7 54.3 30.6 69.7 48.5 69.7 59.6 63.8 58.4 69.7 68.3 69.7 77.8 64.5 71.3 96.5 60.2 96.5 58.5 104.5 77.7 104.5 84.8 69.7 93.2 65.1 92.3 69.7 110.2 69.7 121.2 63.9 120 69.8 127.9 69.8 133.9 41 145.4 41 139.6 69.7 147.6 69.7 156 65.2 155.1 69.7 163.1 69.7 167.4 48.7 178.5 42.9 173 69.7 181 69.7 194.8 62.4 197.1 52.1 183.1 59.5"/>
      <g>
        <path class="cls-1" d="M36,50.5l-10.8,5.9h-8l3.1-15.1-7.5,4-4.6,22.8H0L7.6,31h8l-.8,4.2,7.5-4.1h8.1l-3.2,15.1,10.9-5.9-2.2,10.2h0Z"/>
        <path class="cls-1" d="M36.5,30.9h23.1c0,0-3,14.6-3,14.6h-7.9l1.3-6.6h-7.1l-4.3,21.1h6.3l18.1-9.7-2.2,10.3-14,7.4h-17.9l7.6-37.1h0Z"/>
        <path class="cls-1" d="M69.6,94.8l6.6-31.9-9.6,5.2h-9.9l7.6-37.3h8l-5.7,28.1,11.6-6.2,4.5-21.9h8l-5.4,26.8,13.7-7.5-2.6,10.6-13.4,7.2-7.1,34.8h-19.2l1.7-8h11.1Z"/>
        <path class="cls-1" d="M98.2,30.9h23.1c0,0-3,14.6-3,14.6h-7.9l1.3-6.6h-7.1l-4.3,21.1h6.3l18.1-9.7-2.2,10.3-14,7.4h-17.9l7.6-37.1h0Z"/>
        <path class="cls-1" d="M145.9,68h-8l5.9-28.7h-11.5l-6,28.8h-7.9L132.2,0h8.1l-6.5,31.3h19.7l-5.5,26.5,13-6.9-2,10.1-13.1,6.9h0Z"/>
        <path class="cls-1" d="M193.2,60.7l-13.8,7.3h-8l5.5-26.8-11,5.9-4.3,21h-8l7.6-36.9h7.9l-1.2,5.8,11.1-5.8h7.9l-5.5,26.8,14-7.4-2.2,10.3h0Z"/>
      </g>
      <path class="cls-3" d="M78.1,105h-20.2l1.9-9h11.1l6.3-30.5-8.7,4.7h-10.6l1.1-5.4-10.3,5.4h-18.6l3.1-14.9-6.1,3.3h-8.8l3-14.7-6.3,3.4-4.7,22.9H1.1l7.8-38h9l-.8,3.7,6.7-3.6h8.8l-3.1,14.7,5.8-3.1,2.4-11.8h24.2c0,0-3.2,15.6-3.2,15.6h-9l1.3-6.6h-6.1l-4.1,20.1h5.6l14.8-8,4.4-21.3h9l-5.6,27.6,10.4-5.6,4.5-22.1h9l-5.3,26.4,7.2-3.9,4.6-22.3h24.2c0,0-3.2,15.6-3.2,15.6h-9l1.3-6.6h-6.1l-4.1,20.1h5.6l14.7-7.9L133.5,1.2h9.1l-6.5,31.3h19.7l-5.4,26.1,7.3-3.8,4.6-22.5h9l-1.1,5.4,10.3-5.4h8.7l-5.4,26.3,14-7.4-2.5,11.5-14.1,7.5h-8.8l5.4-26.4-9.9,5.3-4.4,21.2h-9l.8-4-7.6,4h-8.8l5.9-28.7h-10.5l-6,28.8h-9l1.1-5.5-10.2,5.4h-18.6l.8-4.1-7.3,3.9-7.1,35h0ZM59.1,104h18.2l7.1-34.6,9.6-5.2-1,5h17.2l11.8-6.3-1.3,6.4h6.9l6-28.8h12.5l-5.9,28.7h7.3l9.2-4.9-1,4.9h7l4.3-20.8,12.2-6.5-5.6,27.3h7.3l13.5-7.2,2-9-13.9,7.4,5.6-27.2h-7.2l-11.9,6.2,1.2-6.2h-6.9l-4.6,22.2-9.6,5.1,5.6-27h-19.7l6.5-31.3h-7.1l-10.6,51.8-15.4,8.3h-7.1l4.5-22.1h8.1l-1.3,6.6h6.9l2.8-13.5h-22.1c0,0-4.5,21.9-4.5,21.9l-9.4,5.2,5.5-27.3h-7l-4.4,21.7-12.7,6.8,5.8-28.5h-7l-4.3,20.9-15.4,8.3h-7.1l4.5-22.1h8.1l-1.3,6.6h6.9l2.8-13.5h-22.1c0,0-2.3,11.3-2.3,11.3l-8.1,4.3,3.3-15.6h-7.4l-8.3,4.5.9-4.6h-7l-7.4,36h7.1l4.6-22.6,8.6-4.6-3.2,15.6h7.3l7.8-4.2-3.2,15.8h17.2l11.9-6.3-1.3,6.3h9.1l10.4-5.6-6.9,33.4h-11.1l-1.5,7h0Z"/>
    </g>
  </g>
</svg>